<?xml version="1.0" standalone="no"?>
<!DOCTYPE svg PUBLIC "-//W3C//DTD SVG 20010904//EN"
 "http://www.w3.org/TR/2001/REC-SVG-20010904/DTD/svg10.dtd">
<svg version="1.0" xmlns="http://www.w3.org/2000/svg"
 width="700.000000pt" height="700.000000pt" viewBox="0 0 700.000000 700.000000"
 preserveAspectRatio="xMidYMid meet">
<metadata>
Created by potrace 1.14, written by Peter Selinger 2001-2017
</metadata>
<g transform="translate(0.000000,700.000000) scale(0.100000,-0.100000)"
fill="#000000" stroke="none">
<path d="M2920 6120 l0 -290 -290 0 -290 0 0 -290 0 -290 -585 0 -585 0 0
-295 0 -295 -290 0 -290 0 0 -870 0 -870 290 0 290 0 0 -290 0 -290 290 0 290
0 0 -295 0 -295 875 0 875 0 0 295 0 295 875 0 875 0 0 -295 0 -295 -290 0
-290 0 0 -295 0 -295 -1752 2 -1753 3 -3 293 -2 292 -285 0 -285 0 0 -580 0
-580 2330 0 2330 0 0 290 0 290 290 0 290 0 0 290 0 290 290 0 290 0 0 290 0
290 -290 0 -290 0 0 290 0 290 -290 0 -290 0 0 295 0 295 -875 0 -875 0 0
-295 0 -295 -585 0 -585 0 0 295 0 295 290 0 290 0 2 293 3 292 1458 3 1457 2
0 285 0 285 -582 2 -583 3 -3 293 -2 292 585 0 585 0 0 580 0 580 -1455 0
-1455 0 0 -290z m1168 -577 l2 -293 -295 0 -295 0 0 295 0 295 293 -2 292 -3
3 -292z"/>
</g>
</svg>
